Patient4_TMGait_0pt7_02_right_19_GRF.mot
version=1
nRows=52
nColumns=19
inDegrees=no
endheader
time	F1x	F1y	F1z	M1x	M1y	M1z	F2x	F2y	F2z	M2x	M2y	M2z	EC1x	EC1y	EC1z	EC2x	EC2y	EC2z
20.94	22.7172	743.4887	82.2291	-231.3359	-78.0451	755.9957	-1.421	-7.728	-24.9506	4.9944	17.2658	-5.2887	-0.0592	0.0182	-0.0073	-0.0462	0.0165	0.9585
20.9516	18.0092	741.4366	79.4627	-230.6139	-75.0489	752.9795	-0.58785	-4.3345	-16.9727	3.7797	11.7257	-2.754	-0.0592	0.0182	-0.0073	-0.0462	0.0165	0.9585
20.9631	15.0462	739.3658	76.7503	-229.8384	-71.7028	748.7346	-0.063337	-1.3557	-10.153	2.7649	7.0313	-0.39307	-0.0592	0.0182	-0.0073	-0.0462	0.0165	0.9585
20.9747	14.0193	737.5024	74.2825	-229.1053	-68.2048	743.5461	0.18057	1.0126	-4.9099	2.0124	3.4535	1.6083	-0.0592	0.0182	-0.0073	-0.0462	0.0165	0.9585
20.9863	14.8201	735.9892	72.134	-228.4822	-64.6784	737.7149	0.27522	2.7386	-1.2619	1.5155	0.98227	3.1553	-0.0592	0.0182	-0.0073	-0.0462	0.0165	0.9585
20.9979	17.104	734.8473	70.3521	-227.9866	-61.2503	731.5213	0.22958	3.8998	1.0168	1.2331	-0.53771	4.2872	-0.0592	0.0182	-0.0073	-0.0462	0.0165	0.9585
21.0094	20.5097	734.0009	68.8919	-227.5959	-57.957	725.1154	0.13725	4.5654	2.2311	1.0953	-1.3284	4.9878	-0.0592	0.0182	-0.0073	-0.0462	0.0165	0.9585
21.021	24.63	733.3365	67.8206	-227.2571	-54.9403	718.6421	-0.0074602	4.84	2.693	1.0357	-1.5962	5.3269	-0.0592	0.0182	-0.0073	-0.0462	0.0165	0.9585
21.0326	29.1535	732.7988	67.0833	-226.9307	-52.2136	712.2345	-0.13815	4.7347	2.6747	0.97491	-1.5379	5.2453	-0.0592	0.0182	-0.0073	-0.0462	0.0165	0.9585
21.0441	33.7935	732.4193	66.7755	-226.5966	-49.9243	706.091	-0.26939	4.282	2.379	0.8499	-1.2805	4.7665	-0.0592	0.0182	-0.0073	-0.0462	0.0165	0.9585
21.0557	38.3917	732.3349	66.8747	-226.2776	-48.0851	700.4361	-0.35422	3.4236	1.9679	0.59172	-0.94773	3.7799	-0.0592	0.0182	-0.0073	-0.0462	0.0165	0.9585
21.0673	42.8211	732.7512	67.4686	-226.0221	-46.7951	695.5146	-0.42278	2.1375	1.535	0.15484	-0.59872	2.2737	-0.0592	0.0182	-0.0073	-0.0462	0.0165	0.9585
21.0789	47.0385	733.9439	68.5128	-225.9167	-46.0126	691.5689	-0.42747	0.36258	1.1535	-0.49708	-0.31201	0.15567	-0.0592	0.0182	-0.0073	-0.0462	0.0165	0.9585
21.0904	51.0185	736.1954	70.0017	-226.0556	-45.7223	688.8266	-0.39415	-1.8522	0.86599	-1.353	-0.13012	-2.4971	-0.0592	0.0182	-0.0073	-0.0462	0.0165	0.9585
21.102	54.764	739.7472	71.8794	-226.5325	-45.8605	687.4618	-0.26885	-4.388	0.71614	-2.354	-0.12738	-5.5686	-0.0592	0.0182	-0.0073	-0.0462	0.0165	0.9585
21.1136	58.2978	744.7022	74.0721	-227.4067	-46.3357	687.5067	-0.054369	-6.8561	0.7511	-3.3359	-0.37003	-8.5687	-0.0592	0.0182	-0.0073	-0.0462	0.0165	0.9585
21.1251	61.6423	750.9994	76.4857	-228.6874	-47.0513	688.8724	0.30997	-8.6223	1.025	-4.0162	-0.94641	-10.7467	-0.0592	0.0182	-0.0073	-0.0462	0.0165	0.9585
21.1367	64.8123	758.3199	78.9474	-230.3089	-47.8411	691.2225	0.80925	-8.6122	1.6109	-3.9366	-1.9425	-10.7846	-0.0592	0.0182	-0.0073	-0.0462	0.0165	0.9585
21.1483	67.8063	766.1059	81.308	-232.1269	-48.5763	694.0556	1.4816	-5.375	2.5625	-2.4697	-3.4266	-6.9408	-0.0592	0.0182	-0.0073	-0.0462	0.0165	0.9585
21.1599	70.6826	773.4897	83.3509	-233.9025	-49.0515	696.5606	2.2318	3.0121	3.9245	1.1979	-5.4061	3.1258	-0.0592	0.0182	-0.0073	-0.0462	0.0165	0.9585
21.1714	73.4667	779.3663	84.9032	-235.3164	-49.1198	697.7761	2.988	18.7368	5.6607	7.989	-7.7833	22.0521	-0.0592	0.0182	-0.0073	-0.0462	0.0165	0.9585
21.183	76.2331	782.3985	85.7506	-235.9786	-48.5866	696.5167	3.4949	43.9799	7.6432	18.8091	-10.2799	52.5108	-0.0592	0.0182	-0.0073	-0.0462	0.0165	0.9585
21.1946	78.9154	781.0654	85.6854	-235.4362	-47.3074	691.5061	3.457	80.2911	9.5447	34.2836	-12.3451	96.3768	-0.0592	0.0182	-0.0073	-0.0462	0.0165	0.9585
21.2061	81.4178	773.6563	84.4997	-233.1819	-45.157	681.298	2.2634	127.7761	10.8104	54.4028	-13.0412	153.8213	-0.0592	0.0182	-0.0073	-0.0462	0.0165	0.9585
21.2177	83.4669	758.4188	81.953	-228.6907	-42.0339	664.5012	-1.0338	183.9288	10.6776	78.0368	-11.0344	221.8257	-0.0592	0.0182	-0.0073	-0.0462	0.0165	0.9585
21.2293	84.7593	733.7028	77.8883	-221.4596	-37.934	639.7875	-7.3263	242.9182	8.1397	102.6619	-4.8383	293.3535	-0.0592	0.0182	-0.0073	-0.0462	0.0165	0.9585
21.2409	84.8611	698.3811	72.2032	-211.1307	-32.9283	606.319	-15.8907	297.3039	2.7092	125.1791	5.643	359.2565	-0.0592	0.0182	-0.0073	-0.0462	0.0165	0.9585
21.2524	83.4436	652.1887	65.0343	-197.5901	-27.2681	563.9518	-24.9928	343.0588	-4.7196	143.9504	18.5733	414.3805	-0.0592	0.0182	-0.0073	-0.0462	0.0165	0.9585
21.264	80.1823	596.0001	56.6788	-181.0506	-21.2995	513.5483	-33.5578	380.9882	-13.0407	159.3497	32.1742	459.4581	-0.0592	0.0182	-0.0073	-0.0462	0.0165	0.9585
21.2756	75.0461	531.6274	47.6714	-162.0001	-15.4758	456.6841	-40.8846	414.3457	-21.2582	172.7832	45.0134	498.2717	-0.0592	0.0182	-0.0073	-0.0462	0.0165	0.9585
21.2871	68.0466	461.6182	38.564	-141.1499	-10.216	395.5752	-46.5638	446.4682	-28.5542	185.7051	55.976	534.812	-0.0592	0.0182	-0.0073	-0.0462	0.0165	0.9585
21.2987	59.4418	389.0069	29.8995	-119.3749	-5.8618	332.7446	-50.3952	479.6747	-34.4006	199.1023	64.4005	571.8955	-0.0592	0.0182	-0.0073	-0.0462	0.0165	0.9585
21.3103	49.4929	317.1075	22.1302	-97.6604	-2.6667	271.0014	-52.4304	514.6125	-38.731	213.2418	70.2472	610.3604	-0.0592	0.0182	-0.0073	-0.0462	0.0165	0.9585
21.3219	38.8336	249.2361	15.5301	-77.025	-0.64393	213.0161	-52.9703	550.7669	-41.909	227.8601	74.0722	649.6987	-0.0592	0.0182	-0.0073	-0.0462	0.0165	0.9585
21.3334	28.1958	188.2895	10.2675	-58.3786	0.30607	161.1664	-52.3948	586.9657	-44.6093	242.3957	76.8146	688.6464	-0.0592	0.0182	-0.0073	-0.0462	0.0165	0.9585
21.345	18.5216	136.2557	6.3108	-42.373	0.50388	116.9744	-51.1501	621.853	-47.4876	256.2175	79.4118	725.7537	-0.0592	0.0182	-0.0073	-0.0462	0.0165	0.9585
21.3566	10.4289	93.9523	3.554	-29.296	0.2332	81.0816	-49.6031	654.1836	-50.9988	268.7626	82.5402	759.6659	-0.0592	0.0182	-0.0073	-0.0462	0.0165	0.9585
21.3681	4.301	61.0421	1.7272	-19.0863	-0.16771	53.1045	-48.0996	682.9299	-55.2302	279.6025	86.438	789.2827	-0.0592	0.0182	-0.0073	-0.0462	0.0165	0.9585
21.3797	0.061715	36.5806	0.61223	-11.473	-0.55581	32.277	-46.8068	707.5003	-59.8944	288.531	90.8563	813.9714	-0.0592	0.0182	-0.0073	-0.0462	0.0165	0.9585
21.3913	-2.4562	19.2595	-0.028133	-6.0731	-0.80015	17.4677	-45.7277	727.8012	-64.5107	295.5676	95.2583	833.6453	-0.0592	0.0182	-0.0073	-0.0462	0.0165	0.9585
21.4029	-3.5881	7.7955	-0.35791	-2.4911	-0.87493	7.6573	-44.7435	743.9289	-68.5706	300.8237	99.0325	848.4162	-0.0592	0.0182	-0.0073	-0.0462	0.0165	0.9585
21.4144	-3.63	0.8789	-0.48219	-0.32685	-0.79101	1.6956	-43.7517	755.9163	-71.7691	304.3767	101.7847	858.3417	-0.0592	0.0182	-0.0073	-0.0462	0.0165	0.9585
21.426	-3.0959	-2.6371	-0.49476	0.77711	-0.62379	-1.35	-42.6224	763.6978	-73.9992	306.2495	103.3394	863.3637	-0.0592	0.0182	-0.0073	-0.0462	0.0165	0.9585
21.4376	-2.2918	-3.8537	-0.41603	1.1612	-0.45286	-2.4506	-41.2798	767.2498	-75.3101	306.4768	103.7172	863.4951	-0.0592	0.0182	-0.0073	-0.0462	0.0165	0.9585
21.4491	-1.491	-3.6566	-0.3227	1.1017	-0.291	-2.3236	-39.655	766.918	-75.7728	305.2324	102.9894	859.138	-0.0592	0.0182	-0.0073	-0.0462	0.0165	0.9585
21.4607	-0.77598	-2.7556	-0.20462	0.8186	-0.17676	-1.6074	-37.7468	763.4663	-75.4771	302.854	101.2751	851.1537	-0.0592	0.0182	-0.0073	-0.0462	0.0165	0.9585
21.4723	-0.23201	-1.5886	-0.11658	0.4507	-0.087969	-0.64048	-35.5743	758.0071	-74.5182	299.8066	98.7121	840.7868	-0.0592	0.0182	-0.0073	-0.0462	0.0165	0.9585
21.4839	0.16172	-0.48529	-0.028977	0.099458	-0.043405	0.25969	-33.1812	751.7648	-73.0078	296.5828	95.4636	829.4036	-0.0592	0.0182	-0.0073	-0.0462	0.0165	0.9585
21.4954	0.40274	0.45451	0.021774	-0.20002	-0.010843	1.0419	-30.6409	745.8173	-71.1068	293.6052	91.7397	818.205	-0.0592	0.0182	-0.0073	-0.0462	0.0165	0.9585
21.507	0.55159	1.1518	0.057221	-0.42403	0.011202	1.6131	-28.0199	741.0373	-68.9728	291.1979	87.748	808.1781	-0.0592	0.0182	-0.0073	-0.0462	0.0165	0.9585
21.5186	0.60545	1.6652	0.062253	-0.58809	0.035777	2.0565	-25.425	738.0019	-66.7949	289.5591	83.7304	799.9821	-0.0592	0.0182	-0.0073	-0.0462	0.0165	0.9585
21.5301	0.62116	2.0211	0.057963	-0.70299	0.060584	2.3695	-22.9208	736.9726	-64.7527	288.7542	79.907	793.9169	-0.0592	0.0182	-0.0073	-0.0462	0.0165	0.9585
